<svg width="32" height="32" viewBox="0 0 32 32" fill="none" xmlns="http://www.w3.org/2000/svg">
<path d="M26.9723 4H15.418C15.418 6.88 17.7495 9.21143 20.6295 9.21143H22.7551V11.2686C22.7551 14.1486 25.0865 16.48 27.9665 16.48V4.99429C27.9665 4.44571 27.5208 4 26.9723 4Z" fill="white"/>
<path d="M21.2456 9.76001H9.69141C9.69141 12.64 12.0228 14.9714 14.9028 14.9714H17.0285V17.0286C17.0285 19.9086 19.3599 22.24 22.2399 22.24V10.7543C22.2742 10.2057 21.8285 9.76001 21.2456 9.76001Z" fill="url(#paint0_linear_74_7123)"/>
<path d="M15.5542 15.5199H4C4 18.3999 6.3314 20.7313 9.21138 20.7313H11.3371V22.7885C11.3371 25.6685 13.6685 27.9999 16.5485 27.9999V16.5142C16.5485 15.9656 16.1028 15.5199 15.5542 15.5199Z" fill="url(#paint1_linear_74_7123)"/>
<defs>
<linearGradient id="paint0_linear_74_7123" x1="22.0154" y1="9.77256" x2="17.0991" y2="14.8424" gradientUnits="userSpaceOnUse">
<stop offset="0.176" stop-color="white" stop-opacity="0.4"/>
<stop offset="1" stop-color="white"/>
</linearGradient>
<linearGradient id="paint1_linear_74_7123" x1="16.622" y1="15.5636" x2="10.9378" y2="21.0942" gradientUnits="userSpaceOnUse">
<stop offset="0.176" stop-color="white" stop-opacity="0.4"/>
<stop offset="1" stop-color="white"/>
</linearGradient>
</defs>
</svg>
