<svg width="229" height="40" viewBox="0 0 229 40" fill="none" xmlns="http://www.w3.org/2000/svg">
<g clip-path="url(#clip0_720_48855)">
<path d="M60.3145 30.5326C58.7014 31.6057 56.1473 32.0528 53.4586 32.0528C44.945 32.0528 40.1504 26.9556 40.1504 18.7733C40.1504 10.9039 44.945 5.4043 53.4139 5.4043C55.9231 5.4043 58.4773 5.89613 60.3145 7.1928V10.6356C58.4773 9.47312 56.416 8.84715 53.4139 8.84715C47.3199 8.84715 43.7351 12.8712 43.7351 18.8179C43.7351 24.7647 47.4991 28.6994 53.6379 28.6994C56.3713 28.6994 58.4773 28.0734 60.3593 27.1344V30.5326H60.3145Z" fill="white"/>
<path d="M62.8242 21.8135C62.8242 15.9115 66.2745 11.6191 72.1892 11.6191C78.0592 11.6191 81.5095 15.9115 81.5095 21.8135C81.5095 27.7155 78.0592 32.0974 72.1892 32.0974C66.2745 32.0527 62.8242 27.7155 62.8242 21.8135ZM66.14 21.8135C66.14 25.5694 67.9772 28.9228 72.2341 28.9228C76.4013 28.9228 78.2385 25.5247 78.2385 21.8135C78.2385 18.1024 76.4461 14.749 72.2341 14.749C67.9772 14.749 66.14 18.0577 66.14 21.8135Z" fill="white"/>
<path d="M102.212 31.6951H98.8061V19.8018C98.8061 16.2694 97.3722 14.7045 94.146 14.7045C91.0093 14.7045 88.8137 16.806 88.8137 20.7854V31.7399H85.4082V12.0665H88.8137V15.2857C90.0683 12.9607 92.3985 11.6641 95.0422 11.6641C99.5678 11.6641 102.167 14.7939 102.167 20.2041V31.6951H102.212Z" fill="white"/>
<path d="M116.729 12.0218V15.1516H111.62V31.6951H108.304V15.1516H105.123V12.0218H108.304V9.87559C108.304 6.20917 110.366 3.75 114.578 3.75C115.608 3.75 116.28 3.92885 116.863 4.06299V7.19285C116.28 7.05871 115.519 7.014 114.712 7.014C112.606 7.014 111.576 8.22123 111.576 10.0097V12.0218H116.729Z" fill="white"/>
<path d="M125.646 31.7848C122.421 31.7848 120.359 30.2646 120.359 26.6428V3.79492H123.765V26.2405C123.765 28.029 124.93 28.655 126.409 28.655C126.768 28.655 126.991 28.655 127.395 28.6102V31.6507C127.125 31.7401 126.542 31.7848 125.646 31.7848Z" fill="white"/>
<path d="M130.262 12.022H133.667V23.9154C133.667 27.4477 135.1 29.0126 138.327 29.0126C141.464 29.0126 143.659 26.9112 143.659 22.9318V12.022H147.064V31.6953H143.659V28.4761C142.404 30.8011 140.074 32.0978 137.43 32.0978C132.905 32.0978 130.307 28.9679 130.307 23.5577V12.022H130.262Z" fill="white"/>
<path d="M161.583 32.0529C154.189 32.0529 150.963 27.8053 150.963 21.7691C150.963 15.8224 154.279 11.5747 160.283 11.5747C166.378 11.5747 168.797 15.7777 168.797 21.7691V23.2893H154.413C154.907 26.6428 157.057 28.7889 161.717 28.7889C164.003 28.7889 165.929 28.3418 167.722 27.7158V30.8457C166.064 31.7399 163.599 32.0529 161.583 32.0529ZM154.369 20.4277H165.392C165.213 16.7613 163.554 14.7046 160.149 14.7046C156.519 14.7046 154.727 16.9849 154.369 20.4277Z" fill="white"/>
<path d="M189.588 31.6951H186.183V19.8018C186.183 16.2694 184.749 14.7045 181.523 14.7045C178.386 14.7045 176.19 16.806 176.19 20.7854V31.7399H172.785V12.0665H176.19V15.2857C177.445 12.9607 179.775 11.6641 182.419 11.6641C186.944 11.6641 189.544 14.7939 189.544 20.2041V31.6951H189.588Z" fill="white"/>
<path d="M208.228 31.1587C207.063 31.7847 205.226 32.0529 203.433 32.0529C196.398 32.0529 193.127 27.8053 193.127 21.7691C193.127 15.8224 196.398 11.5747 203.433 11.5747C205.226 11.5747 206.571 11.7983 208.138 12.5137V15.6436C206.884 15.0623 205.539 14.7046 203.702 14.7046C198.594 14.7046 196.488 17.9238 196.488 21.7691C196.488 25.6143 198.639 28.8337 203.792 28.8337C205.808 28.8337 207.063 28.5654 208.273 28.1183V31.1587H208.228Z" fill="white"/>
<path d="M221.537 32.0529C214.144 32.0529 210.918 27.8053 210.918 21.7691C210.918 15.8224 214.233 11.5747 220.238 11.5747C226.332 11.5747 228.752 15.7777 228.752 21.7691V23.2893H214.368C214.86 26.6428 217.012 28.7889 221.672 28.7889C223.957 28.7889 225.884 28.3418 227.677 27.7158V30.8457C226.018 31.7399 223.554 32.0529 221.537 32.0529ZM214.323 20.4277H225.345C225.167 16.7613 223.509 14.7046 220.103 14.7046C216.474 14.7046 214.682 16.9849 214.323 20.4277Z" fill="white"/>
<path d="M0.986532 26.0612C0.717678 26.5531 0.359206 27.0896 0.0903517 27.5367C-0.133693 27.9391 0.000733651 28.4757 0.404015 28.744L6.22918 32.321C6.67727 32.5892 7.21498 32.4551 7.48384 32.008C7.70789 31.6056 8.02155 31.1137 8.33521 30.5771C10.6653 26.7766 12.9505 27.2237 17.1626 29.2358L22.943 31.9632C23.391 32.1868 23.9288 31.9632 24.1528 31.5161L26.931 25.2563C27.1101 24.8092 26.931 24.2727 26.4829 24.0938C25.273 23.5126 22.8534 22.3948 20.6576 21.3217C12.7713 17.5658 6.09476 17.7895 0.986532 26.0612Z" fill="url(#paint0_linear_720_48855)"/>
<path d="M27.1109 11.4403C27.3798 10.9485 27.7382 10.4119 28.007 9.96484C28.2759 9.56242 28.1415 9.02587 27.6934 8.7576L21.8683 5.18061C21.4202 4.91235 20.8824 5.04647 20.6135 5.4936C20.3895 5.89601 20.0759 6.38785 19.7622 6.9244C17.4322 10.7249 15.1469 10.2778 10.9348 8.26576L5.19926 5.4936C4.75118 5.27004 4.21346 5.4936 3.98943 5.94072L1.21126 12.2004C1.03203 12.6475 1.21126 13.1842 1.65935 13.3629C2.8692 13.9443 5.28889 15.062 7.48453 16.1352C15.3262 19.9357 22.0027 19.7122 27.1109 11.4403Z" fill="url(#paint1_linear_720_48855)"/>
</g>
<defs>
<linearGradient id="paint0_linear_720_48855" x1="26.7439" y1="34.1778" x2="9.13892" y2="24.0396" gradientUnits="userSpaceOnUse">
<stop stop-color="white" stop-opacity="0.48"/>
<stop offset="1" stop-color="white"/>
</linearGradient>
<linearGradient id="paint1_linear_720_48855" x1="1.37674" y1="3.32" x2="18.9822" y2="13.4582" gradientUnits="userSpaceOnUse">
<stop stop-color="white" stop-opacity="0.5"/>
<stop offset="1" stop-color="white"/>
</linearGradient>
<clipPath id="clip0_720_48855">
<rect width="228.75" height="40" fill="white"/>
</clipPath>
</defs>
</svg>
