<svg width="360" height="200" viewBox="0 0 360 200" fill="none" xmlns="http://www.w3.org/2000/svg">
<rect x="16" y="168" width="8" height="8" fill="#FFF205"/>
<rect x="24" y="168" width="8" height="8" fill="#FFF205"/>
<rect x="32" y="168" width="8" height="8" fill="#FFF205"/>
<rect x="40" y="168" width="8" height="8" fill="#FFF205"/>
<rect x="48" y="168" width="8" height="8" fill="#FFF205"/>
<rect x="40" y="144" width="8" height="8" fill="#FFF205"/>
<rect x="32" y="136" width="8" height="8" fill="#FFF205"/>
<rect x="56" y="176" width="8" height="8" fill="#FFF205"/>
<rect x="64" y="184" width="8" height="8" fill="#FFF205"/>
<rect x="272" y="184" width="8" height="8" fill="#FFF205"/>
<rect x="280" y="176" width="8" height="8" fill="#FFF205"/>
<rect x="288" y="168" width="8" height="8" fill="#FFF205"/>
<rect x="288" y="160" width="8" height="8" fill="#FFF205"/>
<rect x="288" y="152" width="8" height="8" fill="#FFF205"/>
<rect x="288" y="144" width="8" height="8" fill="#FFF205"/>
<rect x="288" y="136" width="8" height="8" fill="#FFF205"/>
<rect x="288" y="128" width="8" height="8" fill="#FFF205"/>
<rect x="288" y="120" width="8" height="8" fill="#FFF205"/>
<rect x="288" y="112" width="8" height="8" fill="#FFF205"/>
<rect x="288" y="104" width="8" height="8" fill="#FFF205"/>
<rect x="288" y="96" width="8" height="8" fill="#FFF205"/>
<rect x="288" y="88" width="8" height="8" fill="#FFF205"/>
<rect x="288" y="80" width="8" height="8" fill="#FFF205"/>
<rect x="288" y="32" width="8" height="48" fill="#FFF205"/>
<rect x="288" y="24" width="8" height="8" fill="#FFF205"/>
<rect x="280" y="16" width="8" height="8" fill="#FFF205"/>
<rect x="272" y="8" width="8" height="8" fill="#FFF205"/>
<rect x="264" width="8" height="8" fill="#FFF205"/>
<rect x="256" width="8" height="8" fill="#FFF205"/>
<rect x="248" width="8" height="8" fill="#FFF205"/>
<rect x="240" width="8" height="8" fill="#FFF205"/>
<rect x="232" width="8" height="8" fill="#FFF205"/>
<rect x="144" width="8" height="8" fill="#FFF205"/>
<rect x="136" width="8" height="8" fill="#FFF205"/>
<rect x="128" width="8" height="8" fill="#FFF205"/>
<rect x="120" width="8" height="8" fill="#FFF205"/>
<rect x="112" width="8" height="8" fill="#FFF205"/>
<rect x="144" width="88" height="8" fill="#FFF205"/>
<rect x="136" width="8" height="8" fill="#FFF205"/>
<rect x="128" width="8" height="8" fill="#FFF205"/>
<rect x="120" width="8" height="8" fill="#FFF205"/>
<rect x="112" width="8" height="8" fill="#FFF205"/>
<rect x="104" width="8" height="8" fill="#FFF205"/>
<rect x="96" width="8" height="8" fill="#FFF205"/>
<rect x="88" width="8" height="8" fill="#FFF205"/>
<rect x="80" width="8" height="8" fill="#FFF205"/>
<rect x="72" width="8" height="8" fill="#FFF205"/>
<rect x="64" y="8" width="8" height="8" fill="#FFF205"/>
<rect x="56" y="16" width="8" height="8" fill="#FFF205"/>
<rect x="48" y="24" width="8" height="8" fill="#FFF205"/>
<rect x="48" y="32" width="8" height="48" fill="#FFF205"/>
<rect x="48" y="80" width="8" height="8" fill="#FFF205"/>
<rect x="48" y="88" width="8" height="8" fill="#FFF205"/>
<rect x="48" y="120" width="8" height="8" fill="#FFF205"/>
<rect x="48" y="112" width="8" height="8" fill="#FFF205"/>
<rect x="48" y="104" width="8" height="8" fill="#FFF205"/>
<rect x="48" y="96" width="8" height="8" fill="#FFF205"/>
<rect x="48" y="168" width="8" height="8" fill="#FFF205"/>
<rect x="48" y="128" width="8" height="8" fill="#FFF205"/>
<rect x="48" y="144" width="8" height="8" fill="#FFF205"/>
<rect x="48" y="152" width="8" height="8" fill="#FFF205"/>
<rect x="48" y="136" width="8" height="8" fill="#FFF205"/>
<rect x="56" y="144" width="8" height="8" fill="#FFF205"/>
<rect x="64" y="136" width="8" height="8" fill="#FFF205"/>
<rect x="72" y="192" width="8" height="8" fill="#FFF205"/>
<rect x="80" y="192" width="8" height="8" fill="#FFF205"/>
<rect x="88" y="192" width="8" height="8" fill="#FFF205"/>
<rect x="96" y="192" width="8" height="8" fill="#FFF205"/>
<rect x="104" y="192" width="8" height="8" fill="#FFF205"/>
<rect x="112" y="192" width="8" height="8" fill="#FFF205"/>
<rect x="120" y="192" width="8" height="8" fill="#FFF205"/>
<rect x="128" y="192" width="8" height="8" fill="#FFF205"/>
<rect x="136" y="192" width="8" height="8" fill="#FFF205"/>
<rect x="144" y="192" width="8" height="8" fill="#FFF205"/>
<rect x="112" y="192" width="8" height="8" fill="#FFF205"/>
<rect x="120" y="192" width="8" height="8" fill="#FFF205"/>
<rect x="128" y="192" width="8" height="8" fill="#FFF205"/>
<rect x="136" y="192" width="8" height="8" fill="#FFF205"/>
<rect x="144" y="192" width="88" height="8" fill="#FFF205"/>
<rect x="232" y="192" width="8" height="8" fill="#FFF205"/>
<rect x="240" y="192" width="8" height="8" fill="#FFF205"/>
<rect x="248" y="192" width="8" height="8" fill="#FFF205"/>
<rect x="256" y="192" width="8" height="8" fill="#FFF205"/>
<rect x="264" y="192" width="8" height="8" fill="#FFF205"/>
<rect y="168" width="8" height="8" fill="#FFF205"/>
<rect x="8" y="168" width="8" height="8" fill="#FFF205"/>
<rect x="320" y="128" width="8" height="8" fill="#FFF205"/>
<rect x="312" y="128" width="8" height="8" fill="#FFF205"/>
<rect x="304" y="128" width="8" height="8" fill="#FFF205"/>
<rect x="296" y="128" width="8" height="8" fill="#FFF205"/>
<rect x="328" y="128" width="8" height="8" fill="#FFF205"/>
<rect x="336" y="128" width="8" height="8" fill="#FFF205"/>
<rect x="344" y="128" width="8" height="8" fill="#FFF205"/>
<rect x="352" y="128" width="8" height="8" fill="#FFF205"/>
<rect x="344" y="136" width="8" height="8" fill="#FFF205"/>
<rect x="336" y="144" width="8" height="8" fill="#FFF205"/>
<rect x="344" y="120" width="8" height="8" fill="#FFF205"/>
<rect x="336" y="112" width="8" height="8" fill="#FFF205"/>
</svg>
