<svg width="296" height="128" viewBox="0 0 296 128" fill="none" xmlns="http://www.w3.org/2000/svg">
<rect y="88" width="8" height="8" fill="#FFF205"/>
<rect y="96" width="8" height="8" fill="#FFF205"/>
<rect x="8" y="104" width="8" height="8" fill="#FFF205"/>
<rect x="16" y="112" width="8" height="8" fill="#FFF205"/>
<rect x="24" y="120" width="8" height="8" fill="#FFF205"/>
<rect x="32" y="120" width="8" height="8" fill="#FFF205"/>
<rect x="40" y="120" width="8" height="8" fill="#FFF205"/>
<rect x="48" y="120" width="8" height="8" fill="#FFF205"/>
<rect x="56" y="120" width="8" height="8" fill="#FFF205"/>
<rect x="64" y="120" width="8" height="8" fill="#FFF205"/>
<rect x="72" y="120" width="168" height="8" fill="#FFF205"/>
<rect x="240" y="120" width="8" height="8" fill="#FFF205"/>
<rect x="248" y="120" width="8" height="8" fill="#FFF205"/>
<rect x="256" y="120" width="8" height="8" fill="#FFF205"/>
<rect x="264" y="120" width="8" height="8" fill="#FFF205"/>
<rect x="272" y="112" width="8" height="8" fill="#FFF205"/>
<rect x="280" y="104" width="8" height="8" fill="#FFF205"/>
<rect x="288" y="96" width="8" height="8" fill="#FFF205"/>
<rect x="288" y="88" width="8" height="8" fill="#FFF205"/>
<rect x="288" y="80" width="8" height="8" fill="#FFF205"/>
<rect x="288" y="72" width="8" height="8" fill="#FFF205"/>
<rect x="288" y="64" width="8" height="8" fill="#FFF205"/>
<rect x="288" y="56" width="8" height="8" fill="#FFF205"/>
<rect x="288" y="48" width="8" height="8" fill="#FFF205"/>
<rect x="288" y="40" width="8" height="8" fill="#FFF205"/>
<rect x="288" y="32" width="8" height="8" fill="#FFF205"/>
<rect x="288" y="24" width="8" height="8" fill="#FFF205"/>
<rect x="280" y="16" width="8" height="8" fill="#FFF205"/>
<rect x="272" y="8" width="8" height="8" fill="#FFF205"/>
<rect x="264" width="8" height="8" fill="#FFF205"/>
<rect x="256" width="8" height="8" fill="#FFF205"/>
<rect x="248" width="8" height="8" fill="#FFF205"/>
<rect x="240" width="8" height="8" fill="#FFF205"/>
<rect x="72" width="168" height="8" fill="#FFF205"/>
<rect x="64" width="8" height="8" fill="#FFF205"/>
<rect x="56" width="8" height="8" fill="#FFF205"/>
<rect x="48" width="8" height="8" fill="#FFF205"/>
<rect x="40" width="8" height="8" fill="#FFF205"/>
<rect x="32" width="8" height="8" fill="#FFF205"/>
<rect x="24" width="8" height="8" fill="#FFF205"/>
<rect x="16" y="8" width="8" height="8" fill="#FFF205"/>
<rect x="8" y="16" width="8" height="8" fill="#FFF205"/>
<rect y="24" width="8" height="8" fill="#FFF205"/>
<rect y="32" width="8" height="8" fill="#FFF205"/>
<rect y="40" width="8" height="8" fill="#FFF205"/>
<rect y="48" width="8" height="8" fill="#FFF205"/>
<rect y="56" width="8" height="8" fill="#FFF205"/>
<rect y="64" width="8" height="8" fill="#FFF205"/>
<rect y="72" width="8" height="8" fill="#FFF205"/>
<rect y="80" width="8" height="8" fill="#FFF205"/>
</svg>
