<svg width="160" height="64" viewBox="0 0 160 64" fill="none" xmlns="http://www.w3.org/2000/svg">
<path d="M82.0325 11.7837H87.9779V41.995C87.9779 49.9611 84.4407 55.5225 76.2376 55.5225C73.1519 55.5225 70.7437 54.9964 69.0879 54.3952V48.6085C70.8942 49.3599 73.0768 49.7358 75.2591 49.7358C80.3016 49.7358 82.0325 46.7296 82.0325 42.3708V11.7837Z" fill="white"/>
<path d="M98.891 9.4541C101.224 9.4541 102.88 10.882 102.88 13.4372C102.88 15.9172 101.224 17.4203 98.891 17.4203C96.558 17.4203 94.9023 15.9924 94.9023 13.4372C94.9023 10.9572 96.558 9.4541 98.891 9.4541ZM95.9559 22.155H101.676V55.2219H95.9559V22.155Z" fill="white"/>
<path d="M115.824 55.2218H110.255V22.1548H115.824V27.9416C117.781 24.0335 121.092 21.2529 127.564 21.6287V27.1899C120.264 26.4385 115.824 28.6179 115.824 35.6821V55.2218Z" fill="white"/>
<path d="M154.281 49.2849C152.174 53.6437 148.185 55.8985 143.068 55.8985C134.262 55.8985 129.822 48.4584 129.822 38.6884C129.822 29.3695 134.488 21.4785 143.745 21.4785C148.562 21.4785 152.325 23.6578 154.281 27.9417V22.155H160.001V55.2219H154.281V49.2849ZM144.573 50.6378C149.691 50.6378 154.206 47.4062 154.206 40.0413V37.4109C154.206 30.046 150.067 26.8143 145.175 26.8143C138.778 26.8143 135.467 31.0228 135.467 38.6884C135.542 46.6546 138.703 50.6378 144.573 50.6378Z" fill="white"/>
<path d="M52.5298 4.64453H26.4902C26.4902 11.1077 31.7585 16.3683 38.2306 16.3683H43.0473V20.9526C43.0473 27.4157 48.3153 32.6764 54.7876 32.6764V6.89911C54.7876 5.62152 53.8092 4.64453 52.5298 4.64453Z" fill="white"/>
<path d="M39.2855 17.9463H13.2461C13.2461 24.4093 18.5142 29.67 24.9865 29.67H29.803V34.2544C29.803 40.7174 35.0711 45.9781 41.5434 45.9781V20.2009C41.5434 18.9984 40.5649 17.9463 39.2855 17.9463Z" fill="url(#paint0_linear_720_48844)"/>
<path d="M26.0395 31.3237H0C0 37.7868 5.26811 43.0475 11.7403 43.0475H16.5569V47.6318C16.5569 54.0949 21.8251 59.3556 28.2972 59.3556V33.5782C28.2972 32.3007 27.2436 31.3237 26.0395 31.3237Z" fill="url(#paint1_linear_720_48844)"/>
<defs>
<linearGradient id="paint0_linear_720_48844" x1="40.9897" y1="18.0115" x2="29.9347" y2="29.4278" gradientUnits="userSpaceOnUse">
<stop offset="0.176" stop-color="white" stop-opacity="0.4"/>
<stop offset="1" stop-color="white"/>
</linearGradient>
<linearGradient id="paint1_linear_720_48844" x1="28.467" y1="31.4106" x2="15.684" y2="43.8658" gradientUnits="userSpaceOnUse">
<stop offset="0.176" stop-color="white" stop-opacity="0.4"/>
<stop offset="1" stop-color="white"/>
</linearGradient>
</defs>
</svg>
