<svg width="76" height="48" viewBox="0 0 76 48" fill="none" xmlns="http://www.w3.org/2000/svg">
<rect x="26" y="23" width="2" height="2" transform="rotate(90 26 23)" fill="#9BD4F4"/>
<rect x="24" y="23" width="2" height="2" transform="rotate(90 24 23)" fill="#9BD4F4"/>
<rect x="22" y="23" width="2" height="2" transform="rotate(90 22 23)" fill="#9BD4F4"/>
<rect x="20" y="23" width="2" height="2" transform="rotate(90 20 23)" fill="#9BD4F4"/>
<rect x="18" y="23" width="2" height="2" transform="rotate(90 18 23)" fill="#9BD4F4"/>
<rect x="16" y="23" width="2" height="2" transform="rotate(90 16 23)" fill="#9BD4F4"/>
<rect x="14" y="23" width="2" height="2" transform="rotate(90 14 23)" fill="#9BD4F4"/>
<rect x="24" y="21" width="2" height="2" transform="rotate(90 24 21)" fill="#9BD4F4"/>
<rect x="22" y="21" width="2" height="2" transform="rotate(90 22 21)" fill="#9BD4F4"/>
<rect x="20" y="21" width="2" height="2" transform="rotate(90 20 21)" fill="#9BD4F4"/>
<rect x="20" y="19" width="2" height="2" transform="rotate(90 20 19)" fill="#9BD4F4"/>
<rect x="18" y="21" width="2" height="2" transform="rotate(90 18 21)" fill="#9BD4F4"/>
<rect x="16" y="21" width="2" height="2" transform="rotate(90 16 21)" fill="#9BD4F4"/>
<rect x="24" y="25" width="2" height="2" transform="rotate(90 24 25)" fill="#9BD4F4"/>
<rect x="22" y="25" width="2" height="2" transform="rotate(90 22 25)" fill="#9BD4F4"/>
<rect x="20" y="25" width="2" height="2" transform="rotate(90 20 25)" fill="#9BD4F4"/>
<rect x="20" y="27" width="2" height="2" transform="rotate(90 20 27)" fill="#9BD4F4"/>
<rect x="18" y="25" width="2" height="2" transform="rotate(90 18 25)" fill="#9BD4F4"/>
<rect x="16" y="25" width="2" height="2" transform="rotate(90 16 25)" fill="#9BD4F4"/>
<rect x="32" y="23" width="2" height="2" transform="rotate(90 32 23)" fill="#0693E3"/>
<rect x="30" y="23" width="2" height="2" transform="rotate(90 30 23)" fill="#0693E3"/>
<rect x="32" y="21" width="2" height="2" transform="rotate(90 32 21)" fill="#0693E3"/>
<rect x="30" y="21" width="2" height="2" transform="rotate(90 30 21)" fill="#0693E3"/>
<rect x="30" y="19" width="2" height="2" transform="rotate(90 30 19)" fill="#0693E3"/>
<rect x="32" y="25" width="2" height="2" transform="rotate(90 32 25)" fill="#0693E3"/>
<rect x="30" y="25" width="2" height="2" transform="rotate(90 30 25)" fill="#0693E3"/>
<rect x="30" y="27" width="2" height="2" transform="rotate(90 30 27)" fill="#0693E3"/>
<rect x="28" y="27" width="2" height="2" transform="rotate(90 28 27)" fill="#0693E3"/>
<rect x="28" y="29" width="2" height="2" transform="rotate(90 28 29)" fill="#0693E3"/>
<rect x="26" y="29" width="2" height="2" transform="rotate(90 26 29)" fill="#0693E3"/>
<rect x="26" y="31" width="2" height="2" transform="rotate(90 26 31)" fill="#0693E3"/>
<rect x="22" y="31" width="2" height="2" transform="rotate(90 22 31)" fill="#0693E3"/>
<rect x="18" y="31" width="2" height="2" transform="rotate(90 18 31)" fill="#0693E3"/>
<rect x="22" y="33" width="2" height="2" transform="rotate(90 22 33)" fill="#0693E3"/>
<rect x="22" y="13" width="2" height="2" transform="rotate(90 22 13)" fill="#0693E3"/>
<rect x="18" y="33" width="2" height="2" transform="rotate(90 18 33)" fill="#0693E3"/>
<rect x="18" y="13" width="2" height="2" transform="rotate(90 18 13)" fill="#0693E3"/>
<rect x="20" y="31" width="2" height="2" transform="rotate(90 20 31)" fill="#0693E3"/>
<rect x="24" y="29" width="2" height="2" transform="rotate(90 24 29)" fill="#0693E3"/>
<rect x="24" y="31" width="2" height="2" transform="rotate(90 24 31)" fill="#0693E3"/>
<rect x="20" y="33" width="2" height="2" transform="rotate(90 20 33)" fill="#0693E3"/>
<rect x="20" y="13" width="2" height="2" transform="rotate(90 20 13)" fill="#0693E3"/>
<rect x="16" y="31" width="2" height="2" transform="rotate(90 16 31)" fill="#0693E3"/>
<rect x="14" y="31" width="2" height="2" transform="rotate(90 14 31)" fill="#0693E3"/>
<rect x="16" y="29" width="2" height="2" transform="rotate(90 16 29)" fill="#0693E3"/>
<rect x="14" y="29" width="2" height="2" transform="rotate(90 14 29)" fill="#0693E3"/>
<rect x="12" y="29" width="2" height="2" transform="rotate(90 12 29)" fill="#0693E3"/>
<rect x="10" y="29" width="2" height="2" transform="rotate(90 10 29)" fill="#0693E3"/>
<rect x="12" y="27" width="2" height="2" transform="rotate(90 12 27)" fill="#0693E3"/>
<rect x="10" y="27" width="2" height="2" transform="rotate(90 10 27)" fill="#0693E3"/>
<rect x="8" y="27" width="2" height="2" transform="rotate(90 8 27)" fill="#0693E3"/>
<rect x="6" y="27" width="2" height="2" transform="rotate(90 6 27)" fill="#0693E3"/>
<rect x="8" y="25" width="2" height="2" transform="rotate(90 8 25)" fill="#0693E3"/>
<rect x="6" y="25" width="2" height="2" transform="rotate(90 6 25)" fill="#0693E3"/>
<rect x="4" y="25" width="2" height="2" transform="rotate(90 4 25)" fill="#0693E3"/>
<rect x="6" y="23" width="2" height="2" transform="rotate(90 6 23)" fill="#0693E3"/>
<rect x="4" y="23" width="2" height="2" transform="rotate(90 4 23)" fill="#0693E3"/>
<rect x="2" y="23" width="2" height="2" transform="rotate(90 2 23)" fill="#0693E3"/>
<rect x="6" y="21" width="2" height="2" transform="rotate(90 6 21)" fill="#0693E3"/>
<rect x="4" y="21" width="2" height="2" transform="rotate(90 4 21)" fill="#0693E3"/>
<rect x="8" y="21" width="2" height="2" transform="rotate(90 8 21)" fill="#0693E3"/>
<rect x="6" y="19" width="2" height="2" transform="rotate(90 6 19)" fill="#0693E3"/>
<rect x="10" y="19" width="2" height="2" transform="rotate(90 10 19)" fill="#0693E3"/>
<rect x="10" y="17" width="2" height="2" transform="rotate(90 10 17)" fill="#0693E3"/>
<rect x="14" y="17" width="2" height="2" transform="rotate(90 14 17)" fill="#0693E3"/>
<rect x="14" y="15" width="2" height="2" transform="rotate(90 14 15)" fill="#0693E3"/>
<rect x="18" y="15" width="2" height="2" transform="rotate(90 18 15)" fill="#0693E3"/>
<rect x="22" y="15" width="2" height="2" transform="rotate(90 22 15)" fill="#0693E3"/>
<rect x="12" y="19" width="2" height="2" transform="rotate(90 12 19)" fill="#0693E3"/>
<rect x="8" y="19" width="2" height="2" transform="rotate(90 8 19)" fill="#0693E3"/>
<rect x="16" y="17" width="2" height="2" transform="rotate(90 16 17)" fill="#0693E3"/>
<rect x="16" y="15" width="2" height="2" transform="rotate(90 16 15)" fill="#0693E3"/>
<rect x="12" y="17" width="2" height="2" transform="rotate(90 12 17)" fill="#0693E3"/>
<rect x="20" y="15" width="2" height="2" transform="rotate(90 20 15)" fill="#0693E3"/>
<rect x="24" y="15" width="2" height="2" transform="rotate(90 24 15)" fill="#0693E3"/>
<rect x="26" y="15" width="2" height="2" transform="rotate(90 26 15)" fill="#0693E3"/>
<rect x="24" y="17" width="2" height="2" transform="rotate(90 24 17)" fill="#0693E3"/>
<rect x="26" y="17" width="2" height="2" transform="rotate(90 26 17)" fill="#0693E3"/>
<rect x="28" y="17" width="2" height="2" transform="rotate(90 28 17)" fill="#0693E3"/>
<rect x="28" y="19" width="2" height="2" transform="rotate(90 28 19)" fill="#0693E3"/>
<path fill-rule="evenodd" clip-rule="evenodd" d="M68 29L68 31L66 31L66 33L64 33L62 33L60 33L60 35L58 35L56 35L54 35L54 37L52 37L50 37L48 37L46 37L44 37L42 37L42 35L40 35L38 35L36 35L36 33L34 33L34 31L32 31L30 31L30 29L30 27L32 27L34 27L36 27L38 27L38 25L40 25L40 23L38 23L38 21L36 21L34 21L32 21L30 21L30 19L30 17L32 17L34 17L34 15L36 15L36 13L38 13L40 13L42 13L42 11L44 11L46 11L48 11L50 11L52 11L54 11L54 13L56 13L58 13L60 13L60 15L62 15L64 15L66 15L66 17L68 17L68 19L66 19L66 21L66 23L66 25L66 27L66 29L64 29L62 29L60 29L58 29L56 29L58 29L60 29L62 29L64 29L66 29L68 29Z" fill="white"/>
<path fill-rule="evenodd" clip-rule="evenodd" d="M76 25L76 23L74 23L74 21L72 21L72 19L70 19L70 17L68 17L68 19L66 19L66 21L66 23L66 25L66 27L66 29L68 29L68 31L70 31L70 29L72 29L72 27L74 27L74 25L76 25ZM42 11L42 13L40 13L38 13L36 13L36 15L34 15L34 13L32 13L32 11L32 9L30 9L30 7L30 5L28 5L28 3L28 0.999998L30 0.999998L30 3L32 3L32 5L34 5L36 5L36 7L38 7L38 9L40 9L40 11L42 11ZM42 37L42 35L40 35L38 35L36 35L36 33L34 33L34 35L32 35L32 37L32 39L30 39L30 41L30 43L28 43L28 45L30 45L32 45L32 43L34 43L36 43L36 41L38 41L38 39L40 39L40 37L42 37ZM40 23L40 25L38 25L38 27L36 27L34 27L32 27L32 25L32 23L32 21L34 21L36 21L38 21L38 23L40 23ZM30 47L30 45L28 45L28 47L30 47Z" fill="#B80404"/>
<rect opacity="0.4" x="62" y="25" width="2" height="2" transform="rotate(90 62 25)" fill="#0693E3"/>
<rect opacity="0.5" x="60" y="25" width="2" height="2" transform="rotate(90 60 25)" fill="#0693E3"/>
<rect opacity="0.4" x="58" y="25" width="2" height="2" transform="rotate(90 58 25)" fill="#0693E3"/>
<rect opacity="0.5" x="56" y="25" width="2" height="2" transform="rotate(90 56 25)" fill="#0693E3"/>
<rect opacity="0.4" x="60" y="27" width="2" height="2" transform="rotate(90 60 27)" fill="#0693E3"/>
<rect opacity="0.5" x="60" y="19" width="2" height="2" transform="rotate(90 60 19)" fill="#0693E3"/>
<rect opacity="0.5" x="58" y="27" width="2" height="2" transform="rotate(90 58 27)" fill="#0693E3"/>
<rect opacity="0.5" x="58" y="19" width="2" height="2" transform="rotate(90 58 19)" fill="#0693E3"/>
<rect opacity="0.5" x="56" y="27" width="2" height="2" transform="rotate(90 56 27)" fill="#0693E3"/>
<rect opacity="0.4" x="56" y="19" width="2" height="2" transform="rotate(90 56 19)" fill="#0693E3"/>
<rect opacity="0.5" x="54" y="25" width="2" height="2" transform="rotate(90 54 25)" fill="#0693E3"/>
<rect opacity="0.5" x="62" y="23" width="2" height="2" transform="rotate(90 62 23)" fill="#0693E3"/>
<rect opacity="0.5" x="62" y="21" width="2" height="2" transform="rotate(90 62 21)" fill="#0693E3"/>
<rect opacity="0.4" x="60" y="23" width="2" height="2" transform="rotate(90 60 23)" fill="#0693E3"/>
<rect opacity="0.5" x="58" y="23" width="2" height="2" transform="rotate(90 58 23)" fill="#0693E3"/>
<rect opacity="0.4" x="56" y="23" width="2" height="2" transform="rotate(90 56 23)" fill="#0693E3"/>
<rect opacity="0.5" x="54" y="23" width="2" height="2" transform="rotate(90 54 23)" fill="#0693E3"/>
<rect opacity="0.5" x="60" y="21" width="2" height="2" transform="rotate(90 60 21)" fill="#0693E3"/>
<rect opacity="0.4" x="58" y="21" width="2" height="2" transform="rotate(90 58 21)" fill="#0693E3"/>
<rect opacity="0.5" x="56" y="21" width="2" height="2" transform="rotate(90 56 21)" fill="#0693E3"/>
<rect opacity="0.4" x="54" y="21" width="2" height="2" transform="rotate(90 54 21)" fill="#0693E3"/>
<rect x="28" y="23" width="2" height="2" transform="rotate(90 28 23)" fill="#51B3EB"/>
<rect x="28" y="25" width="2" height="2" transform="rotate(90 28 25)" fill="#51B3EB"/>
<rect x="26" y="25" width="2" height="2" transform="rotate(90 26 25)" fill="#51B3EB"/>
<rect x="26" y="27" width="2" height="2" transform="rotate(90 26 27)" fill="#51B3EB"/>
<rect x="24" y="27" width="2" height="2" transform="rotate(90 24 27)" fill="#51B3EB"/>
<rect x="22" y="27" width="2" height="2" transform="rotate(90 22 27)" fill="#51B3EB"/>
<rect x="22" y="29" width="2" height="2" transform="rotate(90 22 29)" fill="#51B3EB"/>
<rect x="20" y="29" width="2" height="2" transform="rotate(90 20 29)" fill="#51B3EB"/>
<rect x="18" y="29" width="2" height="2" transform="rotate(90 18 29)" fill="#51B3EB"/>
<rect x="18" y="27" width="2" height="2" transform="rotate(90 18 27)" fill="#51B3EB"/>
<rect x="16" y="27" width="2" height="2" transform="rotate(90 16 27)" fill="#51B3EB"/>
<rect x="14" y="27" width="2" height="2" transform="rotate(90 14 27)" fill="#51B3EB"/>
<rect x="14" y="25" width="2" height="2" transform="rotate(90 14 25)" fill="#51B3EB"/>
<rect x="12" y="25" width="2" height="2" transform="rotate(90 12 25)" fill="#51B3EB"/>
<rect x="10" y="25" width="2" height="2" transform="rotate(90 10 25)" fill="#51B3EB"/>
<rect x="10" y="23" width="2" height="2" transform="rotate(90 10 23)" fill="#51B3EB"/>
<rect x="8" y="23" width="2" height="2" transform="rotate(90 8 23)" fill="#51B3EB"/>
<rect x="12" y="23" width="2" height="2" transform="rotate(90 12 23)" fill="#51B3EB"/>
<rect x="10" y="21" width="2" height="2" transform="rotate(90 10 21)" fill="#51B3EB"/>
<rect x="12" y="21" width="2" height="2" transform="rotate(90 12 21)" fill="#51B3EB"/>
<rect x="14" y="21" width="2" height="2" transform="rotate(90 14 21)" fill="#51B3EB"/>
<rect x="14" y="19" width="2" height="2" transform="rotate(90 14 19)" fill="#51B3EB"/>
<rect x="16" y="19" width="2" height="2" transform="rotate(90 16 19)" fill="#51B3EB"/>
<rect x="18" y="19" width="2" height="2" transform="rotate(90 18 19)" fill="#51B3EB"/>
<rect x="18" y="17" width="2" height="2" transform="rotate(90 18 17)" fill="#51B3EB"/>
<rect x="20" y="17" width="2" height="2" transform="rotate(90 20 17)" fill="#51B3EB"/>
<rect x="22" y="17" width="2" height="2" transform="rotate(90 22 17)" fill="#51B3EB"/>
<rect x="22" y="19" width="2" height="2" transform="rotate(90 22 19)" fill="#51B3EB"/>
<rect x="24" y="19" width="2" height="2" transform="rotate(90 24 19)" fill="#51B3EB"/>
<rect x="26" y="19" width="2" height="2" transform="rotate(90 26 19)" fill="#51B3EB"/>
<rect x="26" y="21" width="2" height="2" transform="rotate(90 26 21)" fill="#51B3EB"/>
<rect x="28" y="21" width="2" height="2" transform="rotate(90 28 21)" fill="#51B3EB"/>
<rect opacity="0.5" x="50" y="25" width="2" height="2" transform="rotate(90 50 25)" fill="#0693E3"/>
<rect opacity="0.4" x="48" y="25" width="2" height="2" transform="rotate(90 48 25)" fill="#0693E3"/>
<rect opacity="0.4" x="50" y="23" width="2" height="2" transform="rotate(90 50 23)" fill="#0693E3"/>
<rect opacity="0.5" x="50" y="21" width="2" height="2" transform="rotate(90 50 21)" fill="#0693E3"/>
<rect opacity="0.5" x="46" y="25" width="2" height="2" transform="rotate(90 46 25)" fill="#0693E3"/>
<rect opacity="0.5" x="48" y="23" width="2" height="2" transform="rotate(90 48 23)" fill="#0693E3"/>
<rect opacity="0.4" x="48" y="21" width="2" height="2" transform="rotate(90 48 21)" fill="#0693E3"/>
<rect opacity="0.4" x="46" y="23" width="2" height="2" transform="rotate(90 46 23)" fill="#0693E3"/>
<rect opacity="0.5" x="46" y="21" width="2" height="2" transform="rotate(90 46 21)" fill="#0693E3"/>
</svg>
