<svg width="1308" height="64" viewBox="0 0 1308 64" fill="none" xmlns="http://www.w3.org/2000/svg">
<path d="M554.031 52V48V44H558.031V48V52H554.031ZM590.031 52H586.031H582.031V48H586.031H590.031V44V40H586.031H582.031H578.031H574.031H570.031H566.031H562.031V44H558.031V40V36V32V28V24H554.031V20H558.031V16H562.031V12H566.031V8H570.031H574.031H578.031H582.031H586.031H590.031V12H586.031V16H590.031H594.031V20V24V28V32V36V40V44V48V52H590.031ZM586.031 36H590.031V32V28H586.031H582.031H578.031V32V36H582.031H586.031ZM570.031 36H574.031V32V28H570.031H566.031H562.031V32V36H566.031H570.031ZM586.031 24H590.031V20H586.031H582.031H578.031V24H582.031H586.031ZM570.031 24H574.031V20H570.031H566.031H562.031V24H566.031H570.031ZM578.031 16H582.031V12H578.031H574.031H570.031H566.031V16H570.031H574.031H578.031ZM646.016 52H642.016H638.016H634.016H630.016H626.016H622.016H618.016H614.016V48H618.016H622.016H626.016H630.016H634.016H638.016H642.016H646.016V44V40H650.016V44V48V52H646.016ZM614.016 48H610.016V44V40V36V32V28V24H606.016V20H610.016V16H614.016V20H618.016H622.016H626.016H630.016V16H634.016V20H638.016H642.016H646.016V24V28V32V36H642.016H638.016H634.016H630.016H626.016H622.016H618.016H614.016V40V44V48ZM638.016 32H642.016V28V24H638.016H634.016H630.016V28V32H634.016H638.016ZM622.016 32H626.016V28V24H622.016H618.016H614.016V28V32H618.016H622.016ZM634.016 16V12H630.016H626.016H622.016H618.016V16H614.016V12H618.016V8H622.016H626.016H630.016H634.016H638.016V12V16H634.016ZM686 52V48V44V40V36V32V28V24H690V28V32V36V40V44V48V52H686ZM662 52V48V44H666V48V52H662ZM698 28V24H702V28H698ZM658 28V24H662V28H658ZM666 44V40V36H670V40V44H666ZM670 36V32V28V24H674V28V32V36H670ZM698 24H694V20H698V24ZM662 24V20H666V24H662ZM694 20H690V16H694V20ZM666 20V16H670V20H666ZM690 16H686V12H690V16ZM670 16V12H674V16H670ZM686 12H682H678H674V8H678H682H686V12ZM717.984 52V48V44V40V36H713.984H709.984V32H713.984V28H717.984V32H721.984H725.984V36H721.984V40H725.984V44H721.984V48V52H717.984ZM709.984 48V44V40H713.984V44V48H709.984ZM729.984 28V24H733.984V28H729.984ZM749.984 52H745.984H741.984H737.984H733.984H729.984V48V44V40V36V32H733.984H737.984H741.984H745.984H749.984H753.984V36V40V44V48V52H749.984ZM745.984 48H749.984V44V40V36H745.984H741.984H737.984H733.984V40V44V48H737.984H741.984H745.984ZM745.984 24H749.984V28H745.984H741.984V24H745.984ZM717.984 28V24H713.984H709.984V20V16H713.984V20H717.984H721.984V16H725.984V20V24H721.984V28H717.984ZM749.984 24V20V16V12H745.984H741.984V16V20H737.984V24H733.984V20H737.984V16V12H733.984H729.984V8H733.984H737.984H741.984H745.984H749.984H753.984V12V16V20V24H749.984ZM713.984 16V12H717.984V16H713.984ZM717.984 12V8H721.984V12H717.984Z" fill="white"/>
<rect x="780" y="24" width="48" height="16" fill="#0693E3"/>
<rect opacity="0.9" x="828" y="24" width="48" height="16" fill="#0693E3"/>
<rect opacity="0.8" x="876" y="24" width="48" height="16" fill="#0693E3"/>
<rect opacity="0.7" x="924" y="24" width="48" height="16" fill="#0693E3"/>
<rect opacity="0.6" x="972" y="24" width="48" height="16" fill="#0693E3"/>
<rect opacity="0.5" x="1020" y="24" width="48" height="16" fill="#0693E3"/>
<rect opacity="0.4" x="1068" y="24" width="48" height="16" fill="#0693E3"/>
<rect opacity="0.3" x="1116" y="24" width="48" height="16" fill="#0693E3"/>
<rect opacity="0.2" x="1164" y="24" width="48" height="16" fill="#0693E3"/>
<rect opacity="0.1" x="1212" y="24" width="48" height="16" fill="#0693E3"/>
<rect opacity="0.05" x="1260" y="24" width="48" height="16" fill="#0693E3"/>
<rect x="528" y="40" width="48" height="16" transform="rotate(-180 528 40)" fill="#0693E3"/>
<rect opacity="0.9" x="480" y="40" width="48" height="16" transform="rotate(-180 480 40)" fill="#0693E3"/>
<rect opacity="0.8" x="432" y="40" width="48" height="16" transform="rotate(-180 432 40)" fill="#0693E3"/>
<rect opacity="0.7" x="384" y="40" width="48" height="16" transform="rotate(-180 384 40)" fill="#0693E3"/>
<rect opacity="0.6" x="336" y="40" width="48" height="16" transform="rotate(-180 336 40)" fill="#0693E3"/>
<rect opacity="0.5" x="288" y="40" width="48" height="16" transform="rotate(-180 288 40)" fill="#0693E3"/>
<rect opacity="0.4" x="240" y="40" width="48" height="16" transform="rotate(-180 240 40)" fill="#0693E3"/>
<rect opacity="0.3" x="192" y="40" width="48" height="16" transform="rotate(-180 192 40)" fill="#0693E3"/>
<rect opacity="0.2" x="144" y="40" width="48" height="16" transform="rotate(-180 144 40)" fill="#0693E3"/>
<rect opacity="0.1" x="96" y="40" width="48" height="16" transform="rotate(-180 96 40)" fill="#0693E3"/>
<rect opacity="0.05" x="48" y="40" width="48" height="16" transform="rotate(-180 48 40)" fill="#0693E3"/>
</svg>
