<svg width="84" height="128" viewBox="0 0 84 128" fill="none" xmlns="http://www.w3.org/2000/svg">
<rect x="46" y="52" width="8" height="8" fill="white"/>
<rect x="54" y="44" width="8" height="8" fill="white"/>
<rect x="38" y="60" width="8" height="8" fill="white"/>
<rect x="38" y="16" width="8" height="32" fill="white"/>
<rect x="38" y="80" width="8" height="32" fill="white"/>
<rect x="74" y="60" width="8" height="16" transform="rotate(90 74 60)" fill="white"/>
<rect x="26" y="60" width="8" height="16" transform="rotate(90 26 60)" fill="white"/>
<rect x="46" y="68" width="8" height="8" fill="white"/>
<rect x="54" y="76" width="8" height="8" fill="white"/>
<rect x="30" y="52" width="8" height="8" fill="white"/>
<rect x="22" y="44" width="8" height="8" fill="white"/>
<rect x="30" y="68" width="8" height="8" fill="white"/>
<rect x="22" y="76" width="8" height="8" fill="white"/>
</svg>
