<svg width="560" height="296" viewBox="0 0 560 296" fill="none" xmlns="http://www.w3.org/2000/svg">
<rect x="16" y="264" width="8" height="8" fill="#FFF205"/>
<rect x="24" y="264" width="8" height="8" fill="#FFF205"/>
<rect x="32" y="264" width="8" height="8" fill="#FFF205"/>
<rect x="40" y="264" width="8" height="8" fill="#FFF205"/>
<rect x="48" y="264" width="8" height="8" fill="#FFF205"/>
<rect x="40" y="240" width="8" height="8" fill="#FFF205"/>
<rect x="32" y="232" width="8" height="8" fill="#FFF205"/>
<rect x="56" y="272" width="8" height="8" fill="#FFF205"/>
<rect x="64" y="280" width="8" height="8" fill="#FFF205"/>
<rect x="272" y="280" width="8" height="8" fill="#FFF205"/>
<rect x="280" y="272" width="8" height="8" fill="#FFF205"/>
<rect x="288" y="264" width="8" height="8" fill="#FFF205"/>
<rect x="288" y="256" width="8" height="8" fill="#FFF205"/>
<rect x="288" y="248" width="8" height="8" fill="#FFF205"/>
<rect x="288" y="240" width="8" height="8" fill="#FFF205"/>
<rect x="288" y="232" width="8" height="8" fill="#FFF205"/>
<rect x="288" y="224" width="8" height="8" fill="#FFF205"/>
<rect x="288" y="216" width="8" height="8" fill="#FFF205"/>
<rect x="288" y="208" width="8" height="8" fill="#FFF205"/>
<rect x="288" y="200" width="8" height="8" fill="#FFF205"/>
<rect x="288" y="192" width="8" height="8" fill="#FFF205"/>
<rect x="288" y="184" width="8" height="8" fill="#FFF205"/>
<rect x="288" y="176" width="8" height="8" fill="#FFF205"/>
<rect x="288" y="128" width="8" height="48" fill="#FFF205"/>
<rect x="288" y="120" width="8" height="8" fill="#FFF205"/>
<rect x="280" y="112" width="8" height="8" fill="#FFF205"/>
<rect x="272" y="104" width="8" height="8" fill="#FFF205"/>
<rect x="264" y="96" width="8" height="8" fill="#FFF205"/>
<rect x="256" y="96" width="8" height="8" fill="#FFF205"/>
<rect x="248" y="96" width="8" height="8" fill="#FFF205"/>
<rect x="240" y="96" width="8" height="8" fill="#FFF205"/>
<rect x="232" y="96" width="8" height="8" fill="#FFF205"/>
<rect x="144" y="96" width="8" height="8" fill="#FFF205"/>
<rect x="136" y="96" width="8" height="8" fill="#FFF205"/>
<rect x="128" y="96" width="8" height="8" fill="#FFF205"/>
<rect x="120" y="96" width="8" height="8" fill="#FFF205"/>
<rect x="112" y="96" width="8" height="8" fill="#FFF205"/>
<rect x="144" y="96" width="88" height="8" fill="#FFF205"/>
<rect x="136" y="96" width="8" height="8" fill="#FFF205"/>
<rect x="128" y="96" width="8" height="8" fill="#FFF205"/>
<rect x="120" y="96" width="8" height="8" fill="#FFF205"/>
<rect x="112" y="96" width="8" height="8" fill="#FFF205"/>
<rect x="104" y="96" width="8" height="8" fill="#FFF205"/>
<rect x="96" y="96" width="8" height="8" fill="#FFF205"/>
<rect x="88" y="96" width="8" height="8" fill="#FFF205"/>
<rect x="80" y="96" width="8" height="8" fill="#FFF205"/>
<rect x="72" y="96" width="8" height="8" fill="#FFF205"/>
<rect x="64" y="104" width="8" height="8" fill="#FFF205"/>
<rect x="56" y="112" width="8" height="8" fill="#FFF205"/>
<rect x="48" y="120" width="8" height="8" fill="#FFF205"/>
<rect x="48" y="128" width="8" height="48" fill="#FFF205"/>
<rect x="48" y="176" width="8" height="8" fill="#FFF205"/>
<rect x="48" y="184" width="8" height="8" fill="#FFF205"/>
<rect x="48" y="216" width="8" height="8" fill="#FFF205"/>
<rect x="48" y="208" width="8" height="8" fill="#FFF205"/>
<rect x="48" y="200" width="8" height="8" fill="#FFF205"/>
<rect x="48" y="192" width="8" height="8" fill="#FFF205"/>
<rect x="48" y="264" width="8" height="8" fill="#FFF205"/>
<rect x="48" y="224" width="8" height="8" fill="#FFF205"/>
<rect x="48" y="240" width="8" height="8" fill="#FFF205"/>
<rect x="48" y="248" width="8" height="8" fill="#FFF205"/>
<rect x="48" y="232" width="8" height="8" fill="#FFF205"/>
<rect x="56" y="240" width="8" height="8" fill="#FFF205"/>
<rect x="64" y="232" width="8" height="8" fill="#FFF205"/>
<rect x="72" y="288" width="8" height="8" fill="#FFF205"/>
<rect x="80" y="288" width="8" height="8" fill="#FFF205"/>
<rect x="88" y="288" width="8" height="8" fill="#FFF205"/>
<rect x="96" y="288" width="8" height="8" fill="#FFF205"/>
<rect x="104" y="288" width="8" height="8" fill="#FFF205"/>
<rect x="112" y="288" width="8" height="8" fill="#FFF205"/>
<rect x="120" y="288" width="8" height="8" fill="#FFF205"/>
<rect x="128" y="288" width="8" height="8" fill="#FFF205"/>
<rect x="136" y="288" width="8" height="8" fill="#FFF205"/>
<rect x="144" y="288" width="8" height="8" fill="#FFF205"/>
<rect x="112" y="288" width="8" height="8" fill="#FFF205"/>
<rect x="120" y="288" width="8" height="8" fill="#FFF205"/>
<rect x="128" y="288" width="8" height="8" fill="#FFF205"/>
<rect x="136" y="288" width="8" height="8" fill="#FFF205"/>
<rect x="144" y="288" width="88" height="8" fill="#FFF205"/>
<rect x="232" y="288" width="8" height="8" fill="#FFF205"/>
<rect x="240" y="288" width="8" height="8" fill="#FFF205"/>
<rect x="248" y="288" width="8" height="8" fill="#FFF205"/>
<rect x="256" y="288" width="8" height="8" fill="#FFF205"/>
<rect x="264" y="288" width="8" height="8" fill="#FFF205"/>
<rect y="264" width="8" height="8" fill="#FFF205"/>
<rect x="8" y="264" width="8" height="8" fill="#FFF205"/>
<rect x="320" y="224" width="8" height="8" fill="#FFF205"/>
<rect x="312" y="224" width="8" height="8" fill="#FFF205"/>
<rect x="304" y="224" width="8" height="8" fill="#FFF205"/>
<rect x="296" y="224" width="8" height="8" fill="#FFF205"/>
<rect x="328" y="224" width="8" height="8" fill="#FFF205"/>
<rect x="336" y="224" width="8" height="8" fill="#FFF205"/>
<rect x="344" y="224" width="8" height="8" fill="#FFF205"/>
<rect x="352" y="224" width="8" height="8" fill="#FFF205"/>
<rect x="344" y="232" width="8" height="8" fill="#FFF205"/>
<rect x="336" y="240" width="8" height="8" fill="#FFF205"/>
<rect x="344" y="216" width="8" height="8" fill="#FFF205"/>
<rect x="336" y="208" width="8" height="8" fill="#FFF205"/>
<rect x="264" y="88" width="8" height="8" fill="#FFF205"/>
<rect x="296" y="120" width="8" height="8" fill="#FFF205"/>
<rect x="304" y="120" width="8" height="8" fill="#FFF205"/>
<rect x="312" y="120" width="8" height="8" fill="#FFF205"/>
<rect x="320" y="120" width="8" height="8" fill="#FFF205"/>
<rect x="328" y="120" width="8" height="8" fill="#FFF205"/>
<rect x="336" y="120" width="168" height="8" fill="#FFF205"/>
<rect x="504" y="120" width="8" height="8" fill="#FFF205"/>
<rect x="512" y="120" width="8" height="8" fill="#FFF205"/>
<rect x="520" y="120" width="8" height="8" fill="#FFF205"/>
<rect x="528" y="120" width="8" height="8" fill="#FFF205"/>
<rect x="536" y="112" width="8" height="8" fill="#FFF205"/>
<rect x="544" y="104" width="8" height="8" fill="#FFF205"/>
<rect x="552" y="96" width="8" height="8" fill="#FFF205"/>
<rect x="552" y="88" width="8" height="8" fill="#FFF205"/>
<rect x="552" y="80" width="8" height="8" fill="#FFF205"/>
<rect x="552" y="72" width="8" height="8" fill="#FFF205"/>
<rect x="552" y="64" width="8" height="8" fill="#FFF205"/>
<rect x="552" y="56" width="8" height="8" fill="#FFF205"/>
<rect x="552" y="48" width="8" height="8" fill="#FFF205"/>
<rect x="552" y="40" width="8" height="8" fill="#FFF205"/>
<rect x="552" y="32" width="8" height="8" fill="#FFF205"/>
<rect x="552" y="24" width="8" height="8" fill="#FFF205"/>
<rect x="544" y="16" width="8" height="8" fill="#FFF205"/>
<rect x="536" y="8" width="8" height="8" fill="#FFF205"/>
<rect x="528" width="8" height="8" fill="#FFF205"/>
<rect x="520" width="8" height="8" fill="#FFF205"/>
<rect x="512" width="8" height="8" fill="#FFF205"/>
<rect x="504" width="8" height="8" fill="#FFF205"/>
<rect x="336" width="168" height="8" fill="#FFF205"/>
<rect x="328" width="8" height="8" fill="#FFF205"/>
<rect x="320" width="8" height="8" fill="#FFF205"/>
<rect x="312" width="8" height="8" fill="#FFF205"/>
<rect x="304" width="8" height="8" fill="#FFF205"/>
<rect x="296" width="8" height="8" fill="#FFF205"/>
<rect x="288" width="8" height="8" fill="#FFF205"/>
<rect x="280" y="8" width="8" height="8" fill="#FFF205"/>
<rect x="272" y="16" width="8" height="8" fill="#FFF205"/>
<rect x="264" y="24" width="8" height="8" fill="#FFF205"/>
<rect x="264" y="32" width="8" height="8" fill="#FFF205"/>
<rect x="264" y="40" width="8" height="8" fill="#FFF205"/>
<rect x="264" y="48" width="8" height="8" fill="#FFF205"/>
<rect x="264" y="56" width="8" height="8" fill="#FFF205"/>
<rect x="264" y="64" width="8" height="8" fill="#FFF205"/>
<rect x="264" y="72" width="8" height="8" fill="#FFF205"/>
<rect x="264" y="80" width="8" height="8" fill="#FFF205"/>
</svg>
