<svg width="320" height="384" viewBox="0 0 320 384" fill="none" xmlns="http://www.w3.org/2000/svg">
<rect y="48" width="560" height="208" fill="#D09C4F"/>
<rect y="304" width="560" height="80" fill="#D09C4F"/>
<rect y="304" width="560" height="80" fill="black" fill-opacity="0.4"/>
<rect width="16" height="16" transform="matrix(-1 0 0 1 132 160)" fill="white"/>
<rect width="16" height="16" transform="matrix(-1 0 0 1 132 176)" fill="white"/>
<rect width="16" height="16" transform="matrix(-1 0 0 1 148 176)" fill="#D0D0D0"/>
<rect width="16" height="16" transform="matrix(-1 0 0 1 164 176)" fill="#E3E3E3"/>
<rect width="16" height="16" transform="matrix(-1 0 0 1 180 176)" fill="#D0D0D0"/>
<rect width="16" height="16" transform="matrix(-1 0 0 1 196 176)" fill="#D0D0D0"/>
<rect width="16" height="16" transform="matrix(-1 0 0 1 212 176)" fill="#E3E3E3"/>
<rect width="16" height="16" transform="matrix(-1 0 0 1 228 176)" fill="#D0D0D0"/>
<rect width="16" height="16" transform="matrix(-1 0 0 1 244 176)" fill="#D0D0D0"/>
<rect width="16" height="16" transform="matrix(-1 0 0 1 260 176)" fill="#E3E3E3"/>
<rect width="16" height="16" transform="matrix(-1 0 0 1 276 176)" fill="#D0D0D0"/>
<rect width="16" height="16" transform="matrix(-1 0 0 1 292 176)" fill="#E3E3E3"/>
<rect width="16" height="16" transform="matrix(-1 0 0 1 132 192)" fill="white"/>
<rect width="16" height="16" transform="matrix(-1 0 0 1 132 208)" fill="white"/>
<rect width="16" height="16" transform="matrix(-1 0 0 1 132 224)" fill="white"/>
<rect width="16" height="16" transform="matrix(-1 0 0 1 148 224)" fill="white"/>
<rect width="16" height="16" transform="matrix(-1 0 0 1 164 224)" fill="white"/>
<rect width="16" height="16" transform="matrix(-1 0 0 1 180 224)" fill="white"/>
<rect width="16" height="16" transform="matrix(-1 0 0 1 196 224)" fill="white"/>
<rect width="16" height="16" transform="matrix(-1 0 0 1 212 224)" fill="white"/>
<rect width="16" height="16" transform="matrix(-1 0 0 1 228 224)" fill="white"/>
<rect width="16" height="16" transform="matrix(-1 0 0 1 244 224)" fill="white"/>
<rect width="16" height="16" transform="matrix(-1 0 0 1 260 224)" fill="white"/>
<rect width="16" height="16" transform="matrix(-1 0 0 1 276 224)" fill="white"/>
<rect width="16" height="16" transform="matrix(-1 0 0 1 292 224)" fill="white"/>
<rect width="16" height="16" transform="matrix(-1 0 0 1 148 208)" fill="#AAAAAA"/>
<rect width="16" height="16" transform="matrix(-1 0 0 1 148 192)" fill="#E3E3E3"/>
<rect width="16" height="16" transform="matrix(-1 0 0 1 164 208)" fill="#E3E3E3"/>
<rect width="16" height="16" transform="matrix(-1 0 0 1 164 192)" fill="#AAAAAA"/>
<rect width="16" height="16" transform="matrix(-1 0 0 1 180 208)" fill="#AAAAAA"/>
<rect width="16" height="16" transform="matrix(-1 0 0 1 180 192)" fill="#E3E3E3"/>
<rect width="16" height="16" transform="matrix(-1 0 0 1 196 208)" fill="#E3E3E3"/>
<rect width="16" height="16" transform="matrix(-1 0 0 1 196 192)" fill="#AAAAAA"/>
<rect width="16" height="16" transform="matrix(-1 0 0 1 212 208)" fill="#E3E3E3"/>
<rect width="16" height="16" transform="matrix(-1 0 0 1 212 192)" fill="#AAAAAA"/>
<rect width="16" height="16" transform="matrix(-1 0 0 1 228 208)" fill="#E3E3E3"/>
<rect width="16" height="16" transform="matrix(-1 0 0 1 228 192)" fill="#E3E3E3"/>
<rect width="16" height="16" transform="matrix(-1 0 0 1 244 208)" fill="#E3E3E3"/>
<rect width="16" height="16" transform="matrix(-1 0 0 1 244 192)" fill="#AAAAAA"/>
<rect width="16" height="16" transform="matrix(-1 0 0 1 260 208)" fill="#AAAAAA"/>
<rect width="16" height="16" transform="matrix(-1 0 0 1 260 192)" fill="#AAAAAA"/>
<rect width="16" height="16" transform="matrix(-1 0 0 1 276 208)" fill="#AAAAAA"/>
<rect width="16" height="16" transform="matrix(-1 0 0 1 276 192)" fill="#E3E3E3"/>
<rect width="16" height="16" transform="matrix(-1 0 0 1 292 208)" fill="#E3E3E3"/>
<rect width="16" height="16" transform="matrix(-1 0 0 1 292 192)" fill="#AAAAAA"/>
<rect width="16" height="16" transform="matrix(-1 0 0 1 308 224)" fill="white"/>
<rect width="16" height="16" transform="matrix(-1 0 0 1 308 208)" fill="white"/>
<rect width="16" height="16" transform="matrix(-1 0 0 1 308 192)" fill="white"/>
<rect width="16" height="16" transform="matrix(-1 0 0 1 308 176)" fill="white"/>
<rect width="16" height="16" transform="matrix(-1 0 0 1 148 160)" fill="white"/>
<rect width="16" height="16" transform="matrix(-1 0 0 1 164 160)" fill="white"/>
<rect width="16" height="16" transform="matrix(-1 0 0 1 180 160)" fill="white"/>
<rect width="16" height="16" transform="matrix(-1 0 0 1 196 160)" fill="white"/>
<rect width="16" height="16" transform="matrix(-1 0 0 1 212 160)" fill="white"/>
<rect width="16" height="16" transform="matrix(-1 0 0 1 228 160)" fill="white"/>
<rect width="16" height="16" transform="matrix(-1 0 0 1 244 160)" fill="white"/>
<rect width="16" height="16" transform="matrix(-1 0 0 1 260 160)" fill="white"/>
<rect width="16" height="16" transform="matrix(-1 0 0 1 276 160)" fill="white"/>
<rect width="16" height="16" transform="matrix(-1 0 0 1 292 160)" fill="white"/>
<rect width="16" height="16" transform="matrix(-1 0 0 1 308 160)" fill="white"/>
<rect y="288" width="560" height="16" fill="#D09C4F"/>
<rect y="288" width="560" height="16" fill="black" fill-opacity="0.5"/>
<rect y="48" width="560" height="16" fill="#D09C4F"/>
<rect y="48" width="560" height="16" fill="black" fill-opacity="0.5"/>
<rect y="256" width="560" height="32" fill="#D09C4F"/>
<rect y="256" width="560" height="32" fill="black" fill-opacity="0.2"/>
<rect width="16" height="16" transform="matrix(-1 0 0 1 112 0)" fill="white"/>
<rect width="16" height="16" transform="matrix(-1 0 0 1 96 0)" fill="white"/>
<rect width="16" height="16" transform="matrix(-1 0 0 1 80 0)" fill="white"/>
<rect width="16" height="16" transform="matrix(-1 0 0 1 64 0)" fill="white"/>
<rect width="16" height="16" transform="matrix(-1 0 0 1 128 0)" fill="white"/>
<rect width="16" height="16" transform="matrix(-1 0 0 1 144 0)" fill="white"/>
<rect width="16" height="16" transform="matrix(-1 0 0 1 160 0)" fill="white"/>
<rect width="16" height="16" transform="matrix(-1 0 0 1 176 0)" fill="white"/>
<rect width="16" height="16" transform="matrix(-1 0 0 1 192 0)" fill="white"/>
<rect width="16" height="16" transform="matrix(-1 0 0 1 208 0)" fill="white"/>
<rect width="16" height="16" transform="matrix(-1 0 0 1 224 0)" fill="white"/>
<rect width="16" height="16" transform="matrix(-1 0 0 1 240 0)" fill="white"/>
<rect width="16" height="16" transform="matrix(-1 0 0 1 256 0)" fill="white"/>
<rect width="16" height="16" transform="matrix(-1 0 0 1 272 0)" fill="white"/>
<rect width="16" height="16" transform="matrix(-1 0 0 1 64 32)" fill="white"/>
<rect width="16" height="16" transform="matrix(-1 0 0 1 64 16)" fill="white"/>
<rect width="16" height="16" transform="matrix(-1 0 0 1 64 48)" fill="white"/>
<rect width="16" height="16" transform="matrix(-1 0 0 1 64 64)" fill="white"/>
<rect width="16" height="16" transform="matrix(-1 0 0 1 64 80)" fill="white"/>
<rect width="16" height="16" transform="matrix(-1 0 0 1 64 96)" fill="white"/>
<rect width="16" height="16" transform="matrix(-1 0 0 1 80 96)" fill="white"/>
<rect width="16" height="16" transform="matrix(-1 0 0 1 96 96)" fill="white"/>
<rect width="16" height="16" transform="matrix(-1 0 0 1 112 96)" fill="white"/>
<rect width="16" height="16" transform="matrix(-1 0 0 1 128 96)" fill="white"/>
<rect width="16" height="16" transform="matrix(-1 0 0 1 144 96)" fill="white"/>
<rect width="16" height="16" transform="matrix(-1 0 0 1 160 96)" fill="white"/>
<rect width="16" height="16" transform="matrix(-1 0 0 1 176 96)" fill="white"/>
<rect width="16" height="16" transform="matrix(-1 0 0 1 176 112)" fill="white"/>
<rect width="16" height="16" transform="matrix(-1 0 0 1 176 128)" fill="white"/>
<rect width="16" height="16" transform="matrix(-1 0 0 1 160 128)" fill="white"/>
<rect width="16" height="16" transform="matrix(-1 0 0 1 192 128)" fill="white"/>
<rect width="16" height="16" transform="matrix(-1 0 0 1 192 96)" fill="white"/>
<rect width="16" height="16" transform="matrix(-1 0 0 1 208 96)" fill="white"/>
<rect width="16" height="16" transform="matrix(-1 0 0 1 224 96)" fill="white"/>
<rect width="16" height="16" transform="matrix(-1 0 0 1 240 96)" fill="white"/>
<rect width="16" height="16" transform="matrix(-1 0 0 1 256 96)" fill="white"/>
<rect width="16" height="16" transform="matrix(-1 0 0 1 272 48)" fill="white"/>
<rect width="16" height="16" transform="matrix(-1 0 0 1 272 64)" fill="white"/>
<rect width="16" height="16" transform="matrix(-1 0 0 1 272 80)" fill="white"/>
<rect width="16" height="16" transform="matrix(-1 0 0 1 272 96)" fill="white"/>
<rect width="16" height="16" transform="matrix(-1 0 0 1 272 32)" fill="white"/>
<rect width="16" height="16" transform="matrix(-1 0 0 1 272 16)" fill="white"/>
<rect width="16" height="16" transform="matrix(-1 0 0 1 112 16)" fill="#454545"/>
<rect width="16" height="16" transform="matrix(-1 0 0 1 112 32)" fill="#454545"/>
<rect width="16" height="16" transform="matrix(-1 0 0 1 112 48)" fill="#454545"/>
<rect width="16" height="16" transform="matrix(-1 0 0 1 112 64)" fill="#454545"/>
<rect width="16" height="16" transform="matrix(-1 0 0 1 112 80)" fill="#454545"/>
<rect width="16" height="16" transform="matrix(-1 0 0 1 96 16)" fill="#454545"/>
<rect width="16" height="16" transform="matrix(-1 0 0 1 96 32)" fill="#454545"/>
<rect width="16" height="16" transform="matrix(-1 0 0 1 96 48)" fill="#454545"/>
<rect width="16" height="16" transform="matrix(-1 0 0 1 96 64)" fill="#454545"/>
<rect width="16" height="16" transform="matrix(-1 0 0 1 96 80)" fill="#454545"/>
<rect width="16" height="16" transform="matrix(-1 0 0 1 80 16)" fill="#454545"/>
<rect width="16" height="16" transform="matrix(-1 0 0 1 80 32)" fill="#454545"/>
<rect width="16" height="16" transform="matrix(-1 0 0 1 80 48)" fill="#454545"/>
<rect width="16" height="16" transform="matrix(-1 0 0 1 80 64)" fill="#454545"/>
<rect width="16" height="16" transform="matrix(-1 0 0 1 80 80)" fill="#454545"/>
<rect width="16" height="16" transform="matrix(-1 0 0 1 128 16)" fill="#454545"/>
<rect width="16" height="16" transform="matrix(-1 0 0 1 128 32)" fill="#454545"/>
<rect width="16" height="16" transform="matrix(-1 0 0 1 128 48)" fill="#454545"/>
<rect width="16" height="16" transform="matrix(-1 0 0 1 128 64)" fill="#454545"/>
<rect width="16" height="16" transform="matrix(-1 0 0 1 128 80)" fill="#454545"/>
<rect width="16" height="16" transform="matrix(-1 0 0 1 144 16)" fill="#454545"/>
<rect width="16" height="16" transform="matrix(-1 0 0 1 144 32)" fill="#454545"/>
<rect width="16" height="16" transform="matrix(-1 0 0 1 144 48)" fill="#454545"/>
<rect width="16" height="16" transform="matrix(-1 0 0 1 144 64)" fill="#454545"/>
<rect width="16" height="16" transform="matrix(-1 0 0 1 144 80)" fill="#454545"/>
<rect width="16" height="16" transform="matrix(-1 0 0 1 160 16)" fill="#454545"/>
<rect width="16" height="16" transform="matrix(-1 0 0 1 160 32)" fill="#454545"/>
<rect width="16" height="16" transform="matrix(-1 0 0 1 160 48)" fill="#454545"/>
<rect width="16" height="16" transform="matrix(-1 0 0 1 160 64)" fill="#454545"/>
<rect width="16" height="16" transform="matrix(-1 0 0 1 160 80)" fill="#454545"/>
<rect width="16" height="16" transform="matrix(-1 0 0 1 176 16)" fill="#454545"/>
<rect width="16" height="16" transform="matrix(-1 0 0 1 176 32)" fill="#454545"/>
<rect width="16" height="16" transform="matrix(-1 0 0 1 176 48)" fill="#454545"/>
<rect width="16" height="16" transform="matrix(-1 0 0 1 176 64)" fill="#454545"/>
<rect width="16" height="16" transform="matrix(-1 0 0 1 176 80)" fill="#454545"/>
<rect width="16" height="16" transform="matrix(-1 0 0 1 192 16)" fill="#454545"/>
<rect width="16" height="16" transform="matrix(-1 0 0 1 192 32)" fill="#454545"/>
<rect width="16" height="16" transform="matrix(-1 0 0 1 192 48)" fill="#454545"/>
<rect width="16" height="16" transform="matrix(-1 0 0 1 192 64)" fill="#454545"/>
<rect width="16" height="16" transform="matrix(-1 0 0 1 192 80)" fill="#454545"/>
<rect width="16" height="16" transform="matrix(-1 0 0 1 208 16)" fill="#454545"/>
<rect width="16" height="16" transform="matrix(-1 0 0 1 208 32)" fill="#454545"/>
<rect width="16" height="16" transform="matrix(-1 0 0 1 208 48)" fill="#454545"/>
<rect width="16" height="16" transform="matrix(-1 0 0 1 208 64)" fill="#454545"/>
<rect width="16" height="16" transform="matrix(-1 0 0 1 208 80)" fill="#454545"/>
<rect width="16" height="16" transform="matrix(-1 0 0 1 224 16)" fill="#454545"/>
<rect width="16" height="16" transform="matrix(-1 0 0 1 224 32)" fill="#454545"/>
<rect width="16" height="16" transform="matrix(-1 0 0 1 224 48)" fill="#454545"/>
<rect width="16" height="16" transform="matrix(-1 0 0 1 224 64)" fill="#454545"/>
<rect width="16" height="16" transform="matrix(-1 0 0 1 224 80)" fill="#454545"/>
<rect width="16" height="16" transform="matrix(-1 0 0 1 240 16)" fill="#454545"/>
<rect width="16" height="16" transform="matrix(-1 0 0 1 240 32)" fill="#454545"/>
<rect width="16" height="16" transform="matrix(-1 0 0 1 240 48)" fill="#454545"/>
<rect width="16" height="16" transform="matrix(-1 0 0 1 240 64)" fill="#454545"/>
<rect width="16" height="16" transform="matrix(-1 0 0 1 240 80)" fill="#454545"/>
<rect width="16" height="16" transform="matrix(-1 0 0 1 256 16)" fill="#454545"/>
<rect width="16" height="16" transform="matrix(-1 0 0 1 256 32)" fill="#454545"/>
<rect width="16" height="16" transform="matrix(-1 0 0 1 256 48)" fill="#454545"/>
<rect width="16" height="16" transform="matrix(-1 0 0 1 256 64)" fill="#454545"/>
<rect width="16" height="16" transform="matrix(-1 0 0 1 256 80)" fill="#454545"/>
<rect width="16" height="16" transform="matrix(-1 0 0 1 320 0)" fill="white"/>
<rect width="16" height="16" transform="matrix(-1 0 0 1 304 0)" fill="white"/>
<rect width="16" height="16" transform="matrix(-1 0 0 1 304 32)" fill="white"/>
<rect width="16" height="16" transform="matrix(-1 0 0 1 304 16)" fill="white"/>
<rect width="16" height="16" transform="matrix(-1 0 0 1 304 48)" fill="white"/>
<rect width="16" height="16" transform="matrix(-1 0 0 1 304 64)" fill="white"/>
<rect width="16" height="16" transform="matrix(-1 0 0 1 304 80)" fill="white"/>
<rect width="16" height="16" transform="matrix(-1 0 0 1 304 96)" fill="white"/>
<rect width="16" height="16" transform="matrix(-1 0 0 1 320 96)" fill="white"/>
<rect width="16" height="16" transform="matrix(-1 0 0 1 320 16)" fill="#454545"/>
<rect width="16" height="16" transform="matrix(-1 0 0 1 320 32)" fill="#454545"/>
<rect width="16" height="16" transform="matrix(-1 0 0 1 320 48)" fill="#454545"/>
<rect width="16" height="16" transform="matrix(-1 0 0 1 320 64)" fill="#454545"/>
<rect width="16" height="16" transform="matrix(-1 0 0 1 320 80)" fill="#454545"/>
</svg>
