<svg width="960" height="240" viewBox="0 0 960 240" fill="none" xmlns="http://www.w3.org/2000/svg">
<path fill-rule="evenodd" clip-rule="evenodd" d="M140 158H148V150H156V142H164V150H172V158H180V166H212V86H180V126H172V118H164V110H156V118H148V126H140V86H108V166H140V158ZM236 166H316V150H260V134H284V118H260V102H316V86H236V94H228V158H236V166ZM420 166H332V86H364V150H420V166ZM516 158H524V134H516H492V150H468V102H492V118H524V94H516V86H468H444V94H436V158H444V166H516V158ZM628 158H620V166H548V158H540V94H548V86H620V94H628V158ZM572 150H596V134V118V102H572V150ZM676 126H684V134H692V142H700V134H708V126H716V166H748V86H716V94H708V102H700V110H692V102H684V94H676V86H644V166H676V126ZM852 166H772V158H764V94H772V86H852V102H796V118H820V134H796V150H852V166Z" fill="#181E2A"/>
<path fill-rule="evenodd" clip-rule="evenodd" d="M140 146H148V138H156V130H164V138H172V146H180V154H212V74H180V114H172V106H164V98H156V106H148V114H140V74H108V154H140V146ZM236 154H316V138H260V122H284V106H260V90H316V74H236V82H228V146H236V154ZM420 154H332V74H364V138H420V154ZM516 146H524V122H516H492V138H468V90H492V106H524V82H516V74H468H444V82H436V146H444V154H516V146ZM628 146H620V154H548V146H540V82H548V74H620V82H628V146ZM572 138H596V122V106V90H572V138ZM676 114H684V122H692V130H700V122H708V114H716V154H748V74H716V82H708V90H700V98H692V90H684V82H676V74H644V154H676V114ZM852 154H772V146H764V82H772V74H852V90H796V106H820V122H796V138H852V154Z" fill="#0693E3"/>
<mask id="path-3-outside-1_87_13992" maskUnits="userSpaceOnUse" x="100" y="66" width="760" height="108" fill="black">
<rect fill="white" x="100" y="66" width="760" height="108"/>
<path fill-rule="evenodd" clip-rule="evenodd" d="M108 154V86V74H140V86V114H148V106H156V98H164V106H172V114H180V86V74H212V86V154V166H180V158H172V150H164V142H156V150H148V158H140V166H108V154ZM228 146V94V82H236V74H316V86V90V102H260V106H284V118V122V134H260V138H316V150V154V166H236V158H228V146ZM332 74V86V154V166H420V154V150V138H364V86V74H332ZM436 146V94V82H444V74H468H516V82H524V94V106V118H492V106V102H468V138H492V134V122H516H524V134V146V158H516V166H444V158H436V146ZM540 82V94V146V158H548V166H620V158H628V146V94V82H620V74H548V82H540ZM596 138H572V102H596V106V118V122V134V138ZM676 126V154V166H644V154V86V74H676V82H684V90H692V98H700V90H708V82H716V74H748V86V154V166H716V154V126H708V134H700V142H692V134H684V126H676ZM764 82V94V146V158H772V166H852V154V150V138H796V134H820V122V118V106H796V102H852V90V86V74H772V82H764Z"/>
</mask>
<path d="M108 74V66H100V74H108ZM140 74H148V66H140V74ZM140 114H132V122H140V114ZM148 114V122H156V114H148ZM148 106V98H140V106H148ZM156 106V114H164V106H156ZM156 98V90H148V98H156ZM164 98H172V90H164V98ZM164 106H156V114H164V106ZM172 106H180V98H172V106ZM172 114H164V122H172V114ZM180 114V122H188V114H180ZM180 74V66H172V74H180ZM212 74H220V66H212V74ZM212 166V174H220V166H212ZM180 166H172V174H180V166ZM180 158H188V150H180V158ZM172 158H164V166H172V158ZM172 150H180V142H172V150ZM164 150H156V158H164V150ZM164 142H172V134H164V142ZM156 142V134H148V142H156ZM156 150V158H164V150H156ZM148 150V142H140V150H148ZM148 158V166H156V158H148ZM140 158V150H132V158H140ZM140 166V174H148V166H140ZM108 166H100V174H108V166ZM228 82V74H220V82H228ZM236 82V90H244V82H236ZM236 74V66H228V74H236ZM316 74H324V66H316V74ZM316 102V110H324V102H316ZM260 102V94H252V102H260ZM260 106H252V114H260V106ZM284 106H292V98H284V106ZM284 134V142H292V134H284ZM260 134V126H252V134H260ZM260 138H252V146H260V138ZM316 138H324V130H316V138ZM316 166V174H324V166H316ZM236 166H228V174H236V166ZM236 158H244V150H236V158ZM228 158H220V166H228V158ZM332 74V66H324V74H332ZM332 166H324V174H332V166ZM420 166V174H428V166H420ZM420 138H428V130H420V138ZM364 138H356V146H364V138ZM364 74H372V66H364V74ZM436 82V74H428V82H436ZM444 82V90H452V82H444ZM444 74V66H436V74H444ZM516 74H524V66H516V74ZM516 82H508V90H516V82ZM524 82H532V74H524V82ZM524 118V126H532V118H524ZM492 118H484V126H492V118ZM492 102H500V94H492V102ZM468 102V94H460V102H468ZM468 138H460V146H468V138ZM492 138V146H500V138H492ZM492 122V114H484V122H492ZM524 122H532V114H524V122ZM524 158V166H532V158H524ZM516 158V150H508V158H516ZM516 166V174H524V166H516ZM444 166H436V174H444V166ZM444 158H452V150H444V158ZM436 158H428V166H436V158ZM540 82V74H532V82H540ZM540 158H532V166H540V158ZM548 158H556V150H548V158ZM548 166H540V174H548V166ZM620 166V174H628V166H620ZM620 158V150H612V158H620ZM628 158V166H636V158H628ZM628 82H636V74H628V82ZM620 82H612V90H620V82ZM620 74H628V66H620V74ZM548 74V66H540V74H548ZM548 82V90H556V82H548ZM572 138H564V146H572V138ZM596 138V146H604V138H596ZM572 102V94H564V102H572ZM596 102H604V94H596V102ZM676 126V118H668V126H676ZM676 166V174H684V166H676ZM644 166H636V174H644V166ZM644 74V66H636V74H644ZM676 74H684V66H676V74ZM676 82H668V90H676V82ZM684 82H692V74H684V82ZM684 90H676V98H684V90ZM692 90H700V82H692V90ZM692 98H684V106H692V98ZM700 98V106H708V98H700ZM700 90V82H692V90H700ZM708 90V98H716V90H708ZM708 82V74H700V82H708ZM716 82V90H724V82H716ZM716 74V66H708V74H716ZM748 74H756V66H748V74ZM748 166V174H756V166H748ZM716 166H708V174H716V166ZM716 126H724V118H716V126ZM708 126V118H700V126H708ZM708 134V142H716V134H708ZM700 134V126H692V134H700ZM700 142V150H708V142H700ZM692 142H684V150H692V142ZM692 134H700V126H692V134ZM684 134H676V142H684V134ZM684 126H692V118H684V126ZM764 82V74H756V82H764ZM764 158H756V166H764V158ZM772 158H780V150H772V158ZM772 166H764V174H772V166ZM852 166V174H860V166H852ZM852 138H860V130H852V138ZM796 138H788V146H796V138ZM796 134V126H788V134H796ZM820 134V142H828V134H820ZM820 106H828V98H820V106ZM796 106H788V114H796V106ZM796 102V94H788V102H796ZM852 102V110H860V102H852ZM852 74H860V66H852V74ZM772 74V66H764V74H772ZM772 82V90H780V82H772ZM100 86V154H116V86H100ZM100 74V86H116V74H100ZM140 66H108V82H140V66ZM148 86V74H132V86H148ZM148 114V86H132V114H148ZM148 106H140V122H148V106ZM140 106V114H156V106H140ZM156 98H148V114H156V98ZM148 98V106H164V98H148ZM164 90H156V106H164V90ZM172 106V98H156V106H172ZM172 98H164V114H172V98ZM180 114V106H164V114H180ZM180 106H172V122H180V106ZM172 86V114H188V86H172ZM172 74V86H188V74H172ZM212 66H180V82H212V66ZM220 86V74H204V86H220ZM220 154V86H204V154H220ZM220 166V154H204V166H220ZM180 174H212V158H180V174ZM172 158V166H188V158H172ZM172 166H180V150H172V166ZM164 150V158H180V150H164ZM164 158H172V142H164V158ZM156 142V150H172V142H156ZM156 150H164V134H156V150ZM164 150V142H148V150H164ZM148 158H156V142H148V158ZM156 158V150H140V158H156ZM140 166H148V150H140V166ZM148 166V158H132V166H148ZM108 174H140V158H108V174ZM100 154V166H116V154H100ZM220 94V146H236V94H220ZM220 82V94H236V82H220ZM236 74H228V90H236V74ZM228 74V82H244V74H228ZM316 66H236V82H316V66ZM324 86V74H308V86H324ZM324 90V86H308V90H324ZM324 102V90H308V102H324ZM260 110H316V94H260V110ZM268 106V102H252V106H268ZM284 98H260V114H284V98ZM292 118V106H276V118H292ZM292 122V118H276V122H292ZM292 134V122H276V134H292ZM260 142H284V126H260V142ZM268 138V134H252V138H268ZM316 130H260V146H316V130ZM324 150V138H308V150H324ZM324 154V150H308V154H324ZM324 166V154H308V166H324ZM236 174H316V158H236V174ZM228 158V166H244V158H228ZM228 166H236V150H228V166ZM220 146V158H236V146H220ZM340 86V74H324V86H340ZM340 154V86H324V154H340ZM340 166V154H324V166H340ZM420 158H332V174H420V158ZM412 154V166H428V154H412ZM412 150V154H428V150H412ZM412 138V150H428V138H412ZM364 146H420V130H364V146ZM356 86V138H372V86H356ZM356 74V86H372V74H356ZM332 82H364V66H332V82ZM428 94V146H444V94H428ZM428 82V94H444V82H428ZM444 74H436V90H444V74ZM436 74V82H452V74H436ZM468 66H444V82H468V66ZM516 66H468V82H516V66ZM524 82V74H508V82H524ZM524 74H516V90H524V74ZM532 94V82H516V94H532ZM532 106V94H516V106H532ZM532 118V106H516V118H532ZM492 126H524V110H492V126ZM484 106V118H500V106H484ZM484 102V106H500V102H484ZM468 110H492V94H468V110ZM476 138V102H460V138H476ZM492 130H468V146H492V130ZM484 134V138H500V134H484ZM484 122V134H500V122H484ZM516 114H492V130H516V114ZM524 114H516V130H524V114ZM532 134V122H516V134H532ZM532 146V134H516V146H532ZM532 158V146H516V158H532ZM516 166H524V150H516V166ZM524 166V158H508V166H524ZM444 174H516V158H444V174ZM436 158V166H452V158H436ZM436 166H444V150H436V166ZM428 146V158H444V146H428ZM548 94V82H532V94H548ZM548 146V94H532V146H548ZM548 158V146H532V158H548ZM548 150H540V166H548V150ZM556 166V158H540V166H556ZM620 158H548V174H620V158ZM612 158V166H628V158H612ZM628 150H620V166H628V150ZM620 146V158H636V146H620ZM620 94V146H636V94H620ZM620 82V94H636V82H620ZM620 90H628V74H620V90ZM612 74V82H628V74H612ZM548 82H620V66H548V82ZM556 82V74H540V82H556ZM540 90H548V74H540V90ZM572 146H596V130H572V146ZM564 102V138H580V102H564ZM596 94H572V110H596V94ZM604 106V102H588V106H604ZM604 118V106H588V118H604ZM604 122V118H588V122H604ZM604 134V122H588V134H604ZM604 138V134H588V138H604ZM684 154V126H668V154H684ZM684 166V154H668V166H684ZM644 174H676V158H644V174ZM636 154V166H652V154H636ZM636 86V154H652V86H636ZM636 74V86H652V74H636ZM676 66H644V82H676V66ZM684 82V74H668V82H684ZM684 74H676V90H684V74ZM692 90V82H676V90H692ZM692 82H684V98H692V82ZM700 98V90H684V98H700ZM700 90H692V106H700V90ZM692 90V98H708V90H692ZM708 82H700V98H708V82ZM700 82V90H716V82H700ZM716 74H708V90H716V74ZM708 74V82H724V74H708ZM748 66H716V82H748V66ZM756 86V74H740V86H756ZM756 154V86H740V154H756ZM756 166V154H740V166H756ZM716 174H748V158H716V174ZM708 154V166H724V154H708ZM708 126V154H724V126H708ZM708 134H716V118H708V134ZM716 134V126H700V134H716ZM700 142H708V126H700V142ZM708 142V134H692V142H708ZM692 150H700V134H692V150ZM684 134V142H700V134H684ZM684 142H692V126H684V142ZM676 126V134H692V126H676ZM676 134H684V118H676V134ZM772 94V82H756V94H772ZM772 146V94H756V146H772ZM772 158V146H756V158H772ZM772 150H764V166H772V150ZM780 166V158H764V166H780ZM852 158H772V174H852V158ZM844 154V166H860V154H844ZM844 150V154H860V150H844ZM844 138V150H860V138H844ZM796 146H852V130H796V146ZM788 134V138H804V134H788ZM820 126H796V142H820V126ZM812 122V134H828V122H812ZM812 118V122H828V118H812ZM812 106V118H828V106H812ZM796 114H820V98H796V114ZM788 102V106H804V102H788ZM852 94H796V110H852V94ZM844 90V102H860V90H844ZM844 86V90H860V86H844ZM844 74V86H860V74H844ZM772 82H852V66H772V82ZM780 82V74H764V82H780ZM764 90H772V74H764V90Z" fill="white" mask="url(#path-3-outside-1_87_13992)"/>
</svg>
